<svg aria-hidden="true" style="position:absolute;width:0;height:0;overflow:hidden" xmlns="http://www.w3.org/2000/svg">
  <defs>
    <symbol id="icon-phone-black-18dp-1-1" viewBox="0 0 32 32">
      <path d="m24.89 19.77-3.27-.36c-.78-.1-1.57.18-2.12.71l-2.36 2.39a19.5 19.5 0 0 1-8.43-8.38l-.05-.1 2.38-2.39c.55-.55.82-1.33.73-2.11l-.36-3.24a2.58 2.58 0 0 0-2.56-2.27H6.61a2.56 2.56 0 0 0-2.58 2.66c.72 11 9.46 19.73 20.38 20.44h.07a2.56 2.56 0 0 0 2.67-2.57v-2.22c0-1.32-.96-2.4-2.26-2.56z"/>
    </symbol>
    <symbol id="icon-person-black-18dp-1-1" viewBox="0 0 32 32">
      <path d="M16 16a5.33 5.33 0 1 0 0-10.67A5.33 5.33 0 1 0 16 16zm0 2.67c-3.56 0-10.67 1.77-10.67 5.33v1.33c0 .73.6 1.34 1.34 1.34h18.66c.73 0 1.34-.6 1.34-1.34V24c0-3.56-7.12-5.33-10.67-5.33z"/>
    </symbol>
    <symbol id="icon-email-black-18dp-1-1" viewBox="0 0 32 32">
      <path d="M26.67 5.33H5.33A2.66 2.66 0 0 0 2.67 8v16a2.67 2.67 0 0 0 2.66 2.67h21.34A2.69 2.69 0 0 0 29.33 24V8c0-1.48-1.2-2.67-2.66-2.67zM26.13 11l-9.42 5.89a1.34 1.34 0 0 1-1.43 0l-9.41-5.87a1.14 1.14 0 1 1 1.2-1.92L16 14.66l8.94-5.58a1.14 1.14 0 1 1 1.2 1.92z"/>
    </symbol>
  </defs>
</svg>
